<svg width="1280" height="720" viewBox="0 0 1280 720" fill="none" xmlns="http://www.w3.org/2000/svg">
<g clip-path="url(#clip0)">
<path d="M441.192 350.52V400.92H508.872V432.888H441.192V486.168H517.512V519H400.872V317.688H517.512V350.52H441.192ZM615.497 392.568V469.752C615.497 475.128 616.745 479.064 619.241 481.56C621.929 483.864 626.345 485.016 632.489 485.016H651.209V519H625.865C591.881 519 574.889 502.488 574.889 469.464V392.568H555.881V359.448H574.889V319.992H615.497V359.448H651.209V392.568H615.497ZM784.465 357.144C796.561 357.144 807.313 359.832 816.721 365.208C826.13 370.392 833.425 378.168 838.609 388.536C843.985 398.712 846.673 411 846.673 425.4V519H806.353V430.872C806.353 418.2 803.185 408.504 796.849 401.784C790.513 394.872 781.873 391.416 770.929 391.416C759.793 391.416 750.961 394.872 744.433 401.784C738.097 408.504 734.929 418.2 734.929 430.872V519H694.609V305.88H734.929V379.32C740.113 372.408 747.025 367.032 755.665 363.192C764.305 359.16 773.905 357.144 784.465 357.144ZM889.048 438.648C889.048 422.52 892.216 408.216 898.552 395.736C905.08 383.256 913.816 373.656 924.76 366.936C935.896 360.216 948.28 356.856 961.912 356.856C973.816 356.856 984.184 359.256 993.016 364.056C1002.04 368.856 1009.24 374.904 1014.62 382.2V359.448H1055.22V519H1014.62V495.672C1009.43 503.16 1002.23 509.4 993.016 514.392C983.992 519.192 973.528 521.592 961.624 521.592C948.184 521.592 935.896 518.136 924.76 511.224C913.816 504.312 905.08 494.616 898.552 482.136C892.216 469.464 889.048 454.968 889.048 438.648ZM1014.62 439.224C1014.62 429.432 1012.7 421.08 1008.86 414.168C1005.02 407.064 999.832 401.688 993.304 398.04C986.776 394.2 979.768 392.28 972.28 392.28C964.792 392.28 957.88 394.104 951.544 397.752C945.208 401.4 940.024 406.776 935.992 413.88C932.152 420.792 930.232 429.048 930.232 438.648C930.232 448.248 932.152 456.696 935.992 463.992C940.024 471.096 945.208 476.568 951.544 480.408C958.072 484.248 964.984 486.168 972.28 486.168C979.768 486.168 986.776 484.344 993.304 480.696C999.832 476.856 1005.02 471.48 1008.86 464.568C1012.7 457.464 1014.62 449.016 1014.62 439.224ZM1197.42 357.144C1216.43 357.144 1231.79 363.192 1243.5 375.288C1255.21 387.192 1261.07 403.896 1261.07 425.4V519H1220.75V430.872C1220.75 418.2 1217.58 408.504 1211.24 401.784C1204.91 394.872 1196.27 391.416 1185.32 391.416C1174.19 391.416 1165.36 394.872 1158.83 401.784C1152.49 408.504 1149.32 418.2 1149.32 430.872V519H1109V359.448H1149.32V379.32C1154.7 372.408 1161.52 367.032 1169.77 363.192C1178.22 359.16 1187.44 357.144 1197.42 357.144Z" fill="#F7EEE7"/>
<path d="M547 3H1308.5V260.5C1308.5 260.5 1187.4 213.35 1117.5 225C1033.5 239 949.5 308.5 949.5 308.5C949.5 308.5 950.348 247.155 876.5 204.5C806.998 164.355 745.636 256.935 672 225C580.72 185.412 547 3 547 3Z" fill="#E0D3C7"/>
<path d="M518 -15H1280V242.079C1280 242.079 1158.82 195.005 1088.87 206.637C1004.82 220.614 920.764 290 920.764 290C920.764 290 921.613 228.756 847.716 186.17C778.169 146.091 716.766 238.52 643.082 206.637C551.742 167.114 518 -15 518 -15Z" fill="#D98135"/>
<path fill-rule="evenodd" clip-rule="evenodd" d="M842 394H928H1009L988.75 566H968.5H928H885H863.5L842 394Z" fill="url(#paint0_linear)"/>
<path d="M928 394H842L863.5 566H885H928V394Z" fill="url(#paint1_linear)"/>
<path d="M928 394H1009L988.75 566H968.5H928V394Z" fill="url(#paint2_linear)"/>
<path fill-rule="evenodd" clip-rule="evenodd" d="M989.464 339H1004.54L1007.93 354H1017.35L1032 394H1017H840H824L838.648 354H849.065L852.465 339H945.507L966.935 317.762C967.309 317.391 967.815 317.182 968.343 317.182H984.187C985.166 317.182 986.002 317.892 986.16 318.859L989.464 339Z" fill="#3D1F05"/>
<path d="M891.294 471.948V475.8H895.974V477.384H891.294V481.326H896.514V483H889.242V470.292H896.514V471.948H891.294ZM907.578 470.292V471.948H904.032V483H901.962V471.948H898.434V470.292H907.578ZM920.107 470.292V483H918.037V477.294H912.061V483H910.009V470.292H912.061V475.62H918.037V470.292H920.107ZM931.073 480.246H925.709L924.737 483H922.541L927.221 470.49H929.579L934.241 483H932.045L931.073 480.246ZM930.497 478.662L928.391 472.722L926.285 478.662H930.497ZM946.942 483H944.89L938.716 473.622V483H936.664V470.31H938.716L944.89 479.724V470.31H946.942V483ZM951.658 468.528C951.826 469.092 951.91 469.692 951.91 470.328C951.91 471.048 951.736 471.6 951.388 471.984C951.052 472.368 950.554 472.56 949.894 472.56V471.696C950.194 471.696 950.416 471.612 950.56 471.444C950.704 471.264 950.776 471 950.776 470.652V470.274H949.804V468.528H951.658ZM963.129 479.616C963.129 480.24 962.979 480.822 962.679 481.362C962.379 481.89 961.923 482.316 961.311 482.64C960.699 482.964 959.949 483.126 959.061 483.126C958.197 483.126 957.423 482.976 956.739 482.676C956.055 482.364 955.509 481.932 955.101 481.38C954.693 480.828 954.459 480.192 954.399 479.472H956.595C956.655 480.024 956.889 480.498 957.297 480.894C957.717 481.29 958.275 481.488 958.971 481.488C959.595 481.488 960.075 481.32 960.411 480.984C960.759 480.648 960.933 480.216 960.933 479.688C960.933 479.232 960.807 478.86 960.555 478.572C960.303 478.272 959.991 478.038 959.619 477.87C959.247 477.702 958.737 477.51 958.089 477.294C957.297 477.042 956.649 476.79 956.145 476.538C955.653 476.286 955.233 475.92 954.885 475.44C954.537 474.96 954.363 474.33 954.363 473.55C954.363 472.866 954.531 472.266 954.867 471.75C955.203 471.234 955.683 470.838 956.307 470.562C956.931 470.274 957.651 470.13 958.467 470.13C959.763 470.13 960.789 470.442 961.545 471.066C962.313 471.69 962.751 472.506 962.859 473.514H960.645C960.561 473.034 960.333 472.626 959.961 472.29C959.601 471.942 959.103 471.768 958.467 471.768C957.891 471.768 957.429 471.918 957.081 472.218C956.733 472.506 956.559 472.926 956.559 473.478C956.559 473.91 956.679 474.27 956.919 474.558C957.159 474.834 957.459 475.056 957.819 475.224C958.191 475.38 958.695 475.566 959.331 475.782C960.135 476.034 960.789 476.292 961.293 476.556C961.809 476.808 962.241 477.18 962.589 477.672C962.949 478.164 963.129 478.812 963.129 479.616Z" fill="#FAF5F1"/>
<path d="M922.755 178.175C920.108 178.642 917.695 178.591 915.515 178.022C913.335 177.453 911.554 176.446 910.173 175C908.784 173.512 907.897 171.675 907.512 169.49C907.186 167.641 907.267 165.894 907.757 164.248C908.289 162.595 909.128 161.212 910.275 160.1C911.464 158.98 912.857 158.28 914.453 157.998C915.924 157.739 917.23 157.898 918.372 158.477C919.507 159.013 920.315 159.911 920.796 161.169C918.611 161.554 916.971 162.45 915.876 163.856C914.774 165.22 914.397 166.89 914.745 168.865C915.063 170.671 915.865 172.025 917.15 172.925C918.436 173.824 919.981 174.115 921.788 173.797C924.015 173.404 925.713 172.346 926.883 170.624C928.087 168.852 928.489 166.831 928.088 164.562C927.74 162.587 926.864 160.814 925.461 159.242C924.057 157.67 922.04 155.816 919.411 153.68C916.683 151.475 914.567 149.551 913.065 147.91C911.597 146.219 910.666 144.26 910.274 142.033C909.888 139.848 910.153 137.787 911.068 135.85C911.975 133.87 913.412 132.187 915.377 130.801C917.342 129.414 919.669 128.484 922.358 128.01C925.762 127.41 928.613 127.73 930.911 128.971C933.252 130.205 934.659 132.166 935.133 134.856C935.444 136.62 935.255 138.127 934.565 139.375C933.875 140.623 932.816 141.373 931.388 141.625C929.791 141.906 928.394 141.481 927.198 140.349C927.893 139.62 928.386 138.731 928.678 137.683C928.97 136.636 929.023 135.586 928.838 134.536C928.601 133.191 928.013 132.19 927.074 131.533C926.134 130.875 924.972 130.669 923.585 130.913C921.904 131.209 920.625 132.063 919.747 133.474C918.904 134.836 918.646 136.441 918.972 138.29C919.268 139.971 920.029 141.461 921.255 142.762C922.473 144.02 924.312 145.602 926.771 147.508C928.77 149.018 930.389 150.336 931.627 151.461C932.907 152.578 934.056 153.935 935.075 155.532C936.127 157.079 936.828 158.84 937.176 160.815C937.65 163.504 937.323 166.075 936.196 168.527C935.111 170.971 933.377 173.053 930.994 174.773C928.653 176.485 925.907 177.619 922.755 178.175ZM952.517 172.148C950.5 172.503 948.75 172.162 947.267 171.124C945.826 170.078 944.884 168.294 944.439 165.773C944.254 164.723 944.181 163.328 944.221 161.588L944.939 140.6L954.015 139L953.256 161.229C953.219 161.756 953.249 162.292 953.345 162.838C953.671 164.687 954.464 165.5 955.725 165.278C956.901 165.071 957.824 164.41 958.494 163.295C959.157 162.138 959.588 160.654 959.789 158.843L960.507 137.855L969.583 136.255L968.824 158.484C968.799 159.572 968.827 160.347 968.909 160.809C969.153 162.195 969.99 162.763 971.419 162.511C973.351 162.17 974.922 160.637 976.131 157.911C977.382 155.177 978.216 152.041 978.631 148.502C979.047 144.962 979.04 141.974 978.61 139.537C978.563 139.762 978.32 139.978 977.88 140.186C977.433 140.351 977.041 140.464 976.705 140.523C975.99 140.649 975.364 140.413 974.825 139.814C974.328 139.209 974.01 138.507 973.869 137.709C973.691 136.7 973.862 135.825 974.381 135.084C974.942 134.335 975.874 133.846 977.176 133.616C978.563 133.372 979.664 133.719 980.48 134.658C981.288 135.556 981.833 136.803 982.114 138.399C982.781 142.181 982.845 146.351 982.305 150.908C981.758 155.424 980.407 159.431 978.251 162.931C976.096 166.43 973.022 168.532 969.03 169.236C966.971 169.599 965.213 169.454 963.754 168.801C962.296 168.149 961.223 166.973 960.533 165.275C958.802 169.22 956.13 171.51 952.517 172.148ZM1000.11 163.755C997.002 164.304 994.445 163.931 992.441 162.638C990.429 161.303 989.119 158.913 988.512 155.468C988 152.568 988.005 149.275 988.524 145.587C989.044 141.9 990.363 138.569 992.481 135.596C994.593 132.581 997.623 130.726 1001.57 130.029C1006.19 129.214 1008.86 130.824 1009.57 134.857C1009.99 137.21 1009.7 139.493 1008.7 141.705C1007.7 143.917 1006.2 145.828 1004.19 147.44C1002.17 149.009 999.913 150.1 997.421 150.712C997.56 151.988 997.666 152.835 997.74 153.256C998.103 155.315 998.708 156.659 999.556 157.29C1000.4 157.878 1001.61 158.031 1003.21 157.75C1005.48 157.35 1007.32 156.484 1008.73 155.152C1010.19 153.812 1011.69 151.901 1013.24 149.417L1015.39 149.039C1012.09 157.635 1007 162.54 1000.11 163.755ZM997.392 147.598C998.932 147.24 1000.31 146.434 1001.52 145.181C1002.77 143.921 1003.67 142.439 1004.24 140.737C1004.85 139.026 1005 137.31 1004.7 135.587C1004.39 133.864 1003.72 133.095 1002.67 133.281C1001.15 133.547 999.895 135.134 998.891 138.041C997.929 140.94 997.43 144.125 997.392 147.598ZM1027.45 158.934C1024.34 159.483 1021.79 159.11 1019.78 157.817C1017.77 156.482 1016.46 154.092 1015.85 150.647C1015.34 147.747 1015.35 144.454 1015.86 140.766C1016.38 137.079 1017.7 133.749 1019.82 130.776C1021.93 127.76 1024.96 125.905 1028.91 125.208C1033.54 124.393 1036.2 126.003 1036.91 130.036C1037.33 132.389 1037.04 134.672 1036.04 136.884C1035.04 139.096 1033.54 141.007 1031.53 142.619C1029.51 144.188 1027.25 145.279 1024.76 145.891C1024.9 147.167 1025.01 148.015 1025.08 148.435C1025.44 150.494 1026.05 151.838 1026.9 152.469C1027.74 153.057 1028.96 153.21 1030.55 152.929C1032.82 152.529 1034.66 151.663 1036.07 150.331C1037.53 148.991 1039.03 147.08 1040.59 144.596L1042.73 144.218C1039.44 152.814 1034.34 157.719 1027.45 158.934ZM1024.73 142.777C1026.27 142.419 1027.65 141.613 1028.86 140.36C1030.11 139.1 1031.02 137.619 1031.58 135.916C1032.19 134.205 1032.34 132.489 1032.04 130.766C1031.73 129.043 1031.06 128.275 1030.01 128.46C1028.49 128.727 1027.24 130.313 1026.23 133.22C1025.27 136.119 1024.77 139.305 1024.73 142.777ZM1051.7 154.658C1049.56 155.036 1047.85 154.666 1046.57 153.549C1045.33 152.424 1044.52 150.79 1044.15 148.647C1043.95 147.555 1043.88 146.419 1043.93 145.24L1044.63 125.621L1042.55 125.987L1042.61 123.377L1044.69 123.011L1045.05 113.979L1054.16 111.074C1054.06 112.737 1054.02 113.72 1054.03 114.021C1053.94 115.25 1053.85 117.713 1053.77 121.41L1057.55 120.743L1057.49 123.353L1053.71 124.02L1053.01 143.64C1052.96 144.601 1052.99 145.355 1053.08 145.901C1053.35 147.414 1054.22 148.041 1055.69 147.781C1056.45 147.648 1056.98 147.489 1057.3 147.303C1056.89 149.889 1056.19 151.701 1055.2 152.742C1054.21 153.782 1053.05 154.421 1051.7 154.658ZM1066.45 117.289C1067.17 116.209 1067.72 115.225 1068.08 114.338C1068.44 113.451 1068.58 112.755 1068.49 112.251C1068.44 111.957 1068.29 111.702 1068.03 111.487C1067.82 111.265 1067.5 111.04 1067.07 110.812C1066.4 110.454 1065.85 110.052 1065.43 109.607C1065 109.162 1064.71 108.519 1064.57 107.679C1064.34 106.377 1064.55 105.256 1065.21 104.317C1065.86 103.335 1066.79 102.737 1068.01 102.523C1069.31 102.293 1070.44 102.528 1071.38 103.227C1072.36 103.878 1072.97 104.854 1073.2 106.157C1073.49 107.795 1073.11 109.724 1072.08 111.944C1071.07 114.114 1069.57 116.155 1067.57 118.068L1066.45 117.289Z" fill="#733C0C"/>
</g>
<defs>
<linearGradient id="paint0_linear" x1="968.5" y1="394" x2="968.5" y2="566" gradientUnits="userSpaceOnUse">
<stop offset="0.338322" stop-color="#D98135"/>
<stop offset="0.339394" stop-color="#3D1F05"/>
<stop offset="0.620588" stop-color="#3D1F05"/>
<stop offset="0.620703" stop-color="#D98135"/>
</linearGradient>
<linearGradient id="paint1_linear" x1="885" y1="394" x2="885" y2="566" gradientUnits="userSpaceOnUse">
<stop offset="0.338322" stop-color="#E28E45"/>
<stop offset="0.339394" stop-color="#3D1F05"/>
<stop offset="0.620588" stop-color="#3D1F05"/>
<stop offset="0.620703" stop-color="#E28E45"/>
</linearGradient>
<linearGradient id="paint2_linear" x1="968.5" y1="394" x2="968.5" y2="566" gradientUnits="userSpaceOnUse">
<stop offset="0.338322" stop-color="#D98135"/>
<stop offset="0.339394" stop-color="#3D1F05"/>
<stop offset="0.620588" stop-color="#3D1F05"/>
<stop offset="0.620703" stop-color="#D98135"/>
</linearGradient>
<clipPath id="clip0">
<rect width="1280" height="720" fill="white"/>
</clipPath>
</defs>
</svg>
